<svg xmlns="http://www.w3.org/2000/svg" width="460" height="130" viewBox="0 0 460 130">
  <g transform="translate(4.32 -4.05) scale(0.9206)">
    <path fill="#262262" fill-rule="evenodd" d="M14.50 13.00L43.50 41.00L41.50 49.00L42.50 68.00L47.50 79.00L52.50 85.00L65.50 95.00L65.50 125.00L62.00 123.50L43.50 104.00L37.50 96.00L27.50 78.00L16.50 44.00L14.50 32.00L14.00 13.50ZM151.50 13.00L152.50 13.00L152.50 20.00L150.50 39.00L143.50 66.00L133.50 88.00L118.50 109.00L101.00 125.50L100.50 95.00L109.00 89.50L115.50 83.00L122.50 71.00L124.50 64.00L124.50 48.00L122.50 41.00L151.00 13.50ZM98.50 91.00L100.00 90.50L99.00 91.50Z"></path>
    <path fill="#7767ae" fill-rule="evenodd" d="M13.50 11.00L28.00 11.50L81.00 30.50L85.00 30.50L138.00 11.50L151.00 10.50L152.50 12.00L100.50 63.00L100.50 90.00L98.50 91.00L101.50 94.00L100.50 95.00L100.50 125.00L103.50 124.00L83.00 138.50L79.00 134.50L78.00 135.50L76.00 132.50L75.00 133.50L62.50 124.00L65.50 125.00L65.50 95.00L63.50 93.00L65.50 93.00L65.50 63.00L13.50 12.00ZM13.50 15.00L14.50 15.00L14.50 25.00L13.50 25.00L13.50 16.00ZM151.50 21.00L152.50 21.00L152.50 27.00L151.50 27.00L151.50 22.00ZM14.50 33.00L15.50 33.00L14.50 34.00ZM150.50 33.00L151.50 33.00L151.50 35.00L150.50 34.00ZM15.50 39.00L16.50 39.00L16.50 41.00L15.50 40.00ZM149.50 40.00L150.50 40.00L150.50 42.00L149.50 41.00ZM42.50 44.00L43.50 44.00L42.50 45.00ZM16.50 45.00L17.50 45.00L16.50 46.00ZM148.50 45.00L149.50 45.00L148.50 46.00ZM123.50 48.00L124.50 48.00L123.50 49.00ZM17.50 49.00L18.50 49.00L17.50 50.00ZM41.50 49.00L42.50 49.00L41.50 50.00ZM147.50 50.00L148.50 50.00L147.50 51.00ZM18.50 53.00L19.50 53.00L18.50 54.00ZM19.50 57.00L20.50 57.00L19.50 58.00ZM20.50 60.00L21.50 60.00L20.50 61.00ZM41.50 62.00L42.50 62.00L41.50 63.00ZM123.50 62.00L124.50 62.00L124.50 64.00L123.50 63.00ZM21.50 63.00L22.50 63.00L21.50 64.00ZM22.50 66.00L23.50 66.00L22.50 67.00ZM80.50 66.00L85.00 65.50L88.50 69.00L88.50 72.00L85.50 76.00L88.50 86.00L77.50 86.00L78.50 85.00L77.50 83.00L80.50 77.00L77.50 72.00L77.50 69.00L80.00 66.50ZM42.50 67.00L43.50 67.00L42.50 68.00ZM141.50 69.00L142.50 69.00L141.50 70.00ZM43.50 70.00L44.50 70.00L43.50 71.00ZM24.50 71.00L25.50 71.00L24.50 72.00ZM29.50 82.00L32.50 86.00L29.50 83.00Z"></path>
    <path fill="#262262" fill-rule="evenodd" d="M175.50 11.00L200.00 10.50L201.50 12.00L202.50 16.00L207.50 25.00L207.50 27.00L211.50 34.00L211.50 36.00L213.50 40.00L215.00 40.50L221.50 27.00L221.50 25.00L226.50 16.00L226.50 14.00L229.00 10.50L252.00 10.50L252.50 13.00L247.50 23.00L245.50 25.00L245.50 27.00L243.50 29.00L225.50 65.00L225.00 91.50L203.50 91.00L203.50 66.00L176.00 11.50ZM303.50 11.00L311.00 10.50L312.00 11.50L317.00 11.50L318.00 12.50L321.00 12.50L324.00 14.50L326.00 14.50L335.00 20.50L341.50 28.00L345.50 36.00L346.50 42.00L347.50 43.00L347.50 60.00L346.50 61.00L346.50 64.00L344.50 67.00L344.50 69.00L339.50 77.00L332.00 84.50L323.00 89.50L317.00 90.50L316.00 91.50L299.00 91.50L298.00 90.50L295.00 90.50L292.00 88.50L290.00 88.50L282.00 83.50L273.50 74.00L269.50 66.00L268.50 60.00L267.50 59.00L267.50 44.00L268.50 43.00L268.50 40.00L269.50 39.00L270.50 34.00L275.50 26.00L283.00 18.50L292.00 13.50L294.00 13.50L298.00 11.50L303.00 11.50ZM370.50 11.00L406.00 10.50L407.00 11.50L412.00 11.50L413.00 12.50L419.00 13.50L428.00 18.50L434.50 25.00L439.50 33.00L439.50 35.00L441.50 39.00L441.50 43.00L442.50 44.00L442.50 59.00L441.50 60.00L441.50 63.00L440.50 64.00L439.50 69.00L435.50 76.00L424.00 86.50L418.00 89.50L412.00 90.50L411.00 91.50L371.00 91.50L370.50 17.00L369.50 16.00L370.50 14.00L369.50 13.00L370.50 12.00ZM391.50 31.00L404.00 30.50L412.00 33.50L417.50 39.00L420.50 47.00L420.50 56.00L419.50 57.00L418.50 62.00L414.00 67.50L409.00 70.50L406.00 70.50L405.00 71.50L392.00 71.50L392.00 31.50ZM301.50 32.00L313.00 31.50L314.00 32.50L316.00 32.50L319.00 34.50L323.50 40.00L323.50 42.00L325.50 46.00L325.50 57.00L322.50 64.00L317.00 69.50L312.00 70.50L311.00 71.50L304.00 71.50L303.00 70.50L300.00 70.50L292.50 64.00L290.50 59.00L290.50 56.00L289.50 55.00L290.50 43.00L294.50 36.00L296.00 34.50L301.00 32.50ZM175.50 121.00L185.00 120.50L186.50 122.00L185.00 123.50L182.00 123.50L181.00 122.50L178.50 123.00L178.50 128.00L184.00 128.50L184.50 130.00L178.50 131.00L178.00 138.50L175.50 138.00L175.50 122.00ZM205.50 121.00L212.00 120.50L216.50 124.00L217.50 126.00L217.50 133.00L216.50 135.00L211.00 138.50L206.00 138.50L201.50 135.00L200.50 133.00L200.50 126.00L201.50 124.00L205.00 121.50ZM232.50 121.00L235.50 121.00L235.50 132.00L238.00 135.50L242.00 135.50L243.50 134.00L243.50 121.00L246.50 121.00L246.50 135.00L242.00 138.50L237.00 138.50L233.50 135.00L232.50 133.00L232.50 122.00ZM262.50 121.00L265.00 120.50L266.50 122.00L267.50 125.00L273.00 132.50L273.50 121.00L276.50 121.00L276.00 138.50L274.00 138.50L272.50 137.00L266.00 126.50L265.50 138.00L262.50 138.00L262.50 122.00ZM292.50 121.00L301.00 120.50L302.00 121.50L304.00 121.50L307.50 125.00L307.50 127.00L308.50 128.00L308.50 132.00L304.00 137.50L302.00 138.50L293.00 138.50L292.50 122.00ZM328.50 121.00L331.50 121.00L337.50 138.00L335.00 138.50L333.00 134.50L326.00 134.50L324.00 138.50L321.50 138.00L322.50 134.00L324.50 131.00L325.50 126.00L328.00 121.50ZM349.50 121.00L362.50 121.00L362.50 122.00L360.00 123.50L359.00 122.50L357.50 123.00L357.00 138.50L354.50 138.00L354.50 124.00L350.00 123.50L349.50 122.00ZM376.50 121.00L379.50 121.00L379.00 138.50L376.50 138.00L376.50 122.00ZM400.50 121.00L406.00 120.50L410.50 123.00L412.50 127.00L412.50 132.00L411.50 134.00L406.00 138.50L401.00 138.50L395.50 134.00L394.50 127.00L395.50 125.00L399.00 121.50L400.00 121.50ZM427.50 121.00L430.00 120.50L432.50 123.00L433.50 126.00L438.00 132.50L438.50 127.00L439.50 126.00L438.50 125.00L438.50 121.00L441.50 121.00L441.00 138.50L438.50 138.00L431.00 126.50L430.50 138.00L427.50 138.00L427.50 122.00ZM205.50 124.00L211.00 123.50L214.50 126.00L214.50 132.00L213.50 134.00L211.00 135.50L207.00 135.50L203.50 133.00L203.50 126.00L205.00 124.50ZM295.50 124.00L302.00 123.50L305.50 128.00L305.50 131.00L302.00 135.50L296.00 135.50L295.50 125.00ZM400.50 124.00L406.00 123.50L409.50 127.00L409.50 132.00L406.00 135.50L401.00 135.50L397.50 131.00L397.50 128.00L400.00 124.50ZM328.50 126.00L330.50 126.00L330.50 128.00L332.50 131.00L332.00 132.50L327.00 132.50L326.50 132.00L328.50 127.00Z"></path>
  </g>
</svg>